<svg xmlns="http://www.w3.org/2000/svg" width="76.223" height="76.193" viewBox="34 943 76.223 76.193"><path d="M110.223 981.097A38.104 38.104 0 0 0 72.111 943C51.063 943 34 960.056 34 981.097c0 21.04 17.063 38.096 38.111 38.096a38.104 38.104 0 0 0 38.112-38.096Zm-38.13 16.54a2.54 2.54 0 0 1-2.54-2.54v-21.859l-11.16 11.156c-.95.95-2.464.99-3.463.122a2.577 2.577 0 0 1-.13-.122 2.54 2.54 0 0 1-.134-3.448 2.577 2.577 0 0 1 .133-.144l15.496-15.489a2.498 2.498 0 0 1 .589-.445.697.697 0 0 0 .035-.021l.007-.005a.551.551 0 0 1 .043-.025.577.577 0 0 0 .066-.04.471.471 0 0 1 .087-.052 1.14 1.14 0 0 1 .22-.06l.01-.001a2.202 2.202 0 0 0 .12-.026 5.19 5.19 0 0 0 .053-.015l.05-.014a1.42 1.42 0 0 1 .145-.033 1.81 1.81 0 0 1 .196-.017l.138-.003a7.682 7.682 0 0 1 .057 0 7.77 7.77 0 0 1 .058 0c.048 0 .096 0 .143.003a1.813 1.813 0 0 1 .191.017c.085.014.164.04.246.062.04.01.081.018.122.026a1.193 1.193 0 0 1 .23.061.465.465 0 0 1 .085.05.58.58 0 0 0 .07.042.608.608 0 0 1 .04.025l.04.025a2.477 2.477 0 0 1 .594.449l15.493 15.486a2.532 2.532 0 0 1 .694 1.292c.034.166.05.335.05.504a2.532 2.532 0 0 1-.611 1.652 2.584 2.584 0 0 1-.133.144 2.529 2.529 0 0 1-1.296.694 2.538 2.538 0 0 1-2.297-.694l-11.16-11.156v21.86a2.54 2.54 0 0 1-2.54 2.539l-.013-.001a.039.039 0 0 0-.006 0 .057.057 0 0 0-.009 0 .057.057 0 0 1-.008.001Zm1.093-32.862h.002m-2.153.001h.002" fill="rgba(255, 255, 255, 1)" fill-rule="evenodd" data-name="Фигура 5"/></svg>