<svg width="28" height="28" viewBox="0 0 28 28" fill="none" xmlns="http://www.w3.org/2000/svg">
<g clip-path="url(#clip0_2311_16)">
<path fill-rule="evenodd" clip-rule="evenodd" d="M14.7881 -5.42676e-06C14.4581 -0.000180316 14.1281 -0.000180316 13.7981 -5.42676e-06C13.4518 -0.000201642 13.1055 -0.000201642 12.7592 -5.42676e-06C9.94618 0.00399457 9.43215 0.0229948 8.10915 0.0829948C7.28315 0.119995 6.60411 0.210993 6.01211 0.342993C5.58574 0.437706 5.16724 0.564741 4.76016 0.722994C3.83941 1.0696 3.00538 1.6129 2.31619 2.31499C2.2108 2.42006 2.10842 2.5281 2.00918 2.63899C1.45328 3.25963 1.01751 3.97816 0.724145 4.75799C0.576778 5.13631 0.45649 5.52462 0.36416 5.91999C0.28716 6.24899 0.223096 6.605 0.174096 6.999C0.129431 7.36668 0.0991327 7.73595 0.0831541 8.10599C0.0794509 8.18899 0.0757979 8.27199 0.0721678 8.35499C0.0201678 9.51199 0.00314627 10.132 0.00014627 12.803C-2.78167e-05 13.133 -2.78167e-05 13.463 0.00014627 13.793C-4.87566e-05 14.139 -4.87566e-05 14.485 0.00014627 14.831C0.00314627 17.277 0.0181814 17.984 0.0611814 18.997C0.068299 19.1577 0.075605 19.3183 0.0831541 19.479C0.0978954 19.8145 0.124224 20.1493 0.162134 20.483C0.208134 20.882 0.269164 21.243 0.343164 21.575C0.438135 22.0014 0.565486 22.42 0.724145 22.827C1.07094 23.7474 1.61427 24.5811 2.31619 25.27C2.41558 25.3694 2.51753 25.4661 2.62209 25.56C3.24723 26.1232 3.97249 26.5641 4.76016 26.86C5.63816 27.201 6.64013 27.435 8.11013 27.501C8.1928 27.505 8.27551 27.509 8.35818 27.513C9.51618 27.565 10.1371 27.581 12.8081 27.583C13.1381 27.5835 13.4681 27.5838 13.7981 27.584C14.1448 27.5842 14.4915 27.5842 14.8382 27.584C17.2852 27.581 17.9922 27.567 19.0052 27.523C19.1658 27.5159 19.3266 27.5085 19.4872 27.501C19.823 27.4866 20.1581 27.4606 20.4921 27.423C20.8911 27.377 21.2521 27.316 21.5841 27.241C22.0108 27.1463 22.4298 27.0193 22.8372 26.861C23.7578 26.5146 24.5918 25.9717 25.2812 25.27C25.3865 25.1649 25.4889 25.0569 25.5882 24.946C26.1438 24.3249 26.5791 23.6061 26.8721 22.826C27.0193 22.4483 27.1398 22.0607 27.2322 21.666C27.3149 21.3097 27.3782 20.9491 27.4221 20.586C27.4671 20.2183 27.4979 19.849 27.5142 19.479C27.5179 19.396 27.5215 19.313 27.5252 19.23C27.5772 18.073 27.5941 17.452 27.5961 14.782C27.5963 14.452 27.5963 14.122 27.5961 13.792C27.5963 13.446 27.5963 13.1 27.5961 12.754C27.5931 9.942 27.5742 9.42799 27.5142 8.10599C27.4995 7.77018 27.4731 7.43498 27.4352 7.101C27.3514 6.29863 27.162 5.51083 26.8721 4.75799C26.6788 4.2492 26.4265 3.76488 26.1201 3.31499C25.8715 2.9565 25.5904 2.62175 25.2802 2.31499C25.1754 2.20962 25.0677 2.10725 24.9572 2.00799C24.3362 1.45236 23.6173 1.01697 22.8372 0.723994C22.4588 0.576683 22.0705 0.456381 21.6752 0.363993C20.9562 0.202588 20.2237 0.108517 19.4872 0.0829948C19.4042 0.0792921 19.3212 0.0756239 19.2382 0.0719932C18.0802 0.0199932 17.4601 0.00299457 14.7881 -5.42676e-06ZM19.3742 2.566C19.2125 2.55844 19.0509 2.5511 18.8892 2.54399C17.8962 2.50199 17.2131 2.488 14.8141 2.485C14.4754 2.48482 14.1368 2.48482 13.7981 2.485C13.4758 2.48484 13.1535 2.48484 12.8312 2.485C10.3922 2.488 9.70718 2.50099 8.70718 2.54399C8.54583 2.5511 8.38449 2.55844 8.22317 2.566C6.87717 2.626 6.14718 2.851 5.66018 3.04C5.42549 3.12949 5.19808 3.23715 4.98013 3.36199C4.64792 3.55735 4.34323 3.79611 4.07412 4.07199C3.61812 4.52699 3.32613 4.96199 3.08413 5.55199C3.0698 5.58719 3.05581 5.62253 3.04214 5.658C3.01711 5.72194 2.99309 5.78628 2.97012 5.851C2.80012 6.334 2.62016 7.041 2.56716 8.219C2.5596 8.38065 2.5523 8.54232 2.54519 8.70399C2.50319 9.69599 2.48921 10.379 2.48721 12.778C2.48703 13.1163 2.48703 13.4547 2.48721 13.793C2.48721 17.475 2.50016 17.911 2.56716 19.366C2.62416 20.619 2.8232 21.339 3.0032 21.825C3.01593 21.8591 3.02887 21.8931 3.04214 21.927C3.13156 22.1617 3.23925 22.3891 3.36416 22.607C3.55216 22.931 3.77912 23.217 4.07412 23.512C4.53012 23.968 4.9651 24.26 5.5541 24.502C5.5893 24.5163 5.62472 24.5303 5.66018 24.544C5.7238 24.5687 5.78783 24.5923 5.8522 24.615C6.3332 24.785 7.03412 24.963 8.19912 25.018C8.20712 25.0183 8.21517 25.0187 8.22317 25.019C8.38449 25.0266 8.54583 25.0339 8.70718 25.041C9.82718 25.089 10.5541 25.1 13.7981 25.1C17.4831 25.1 17.9192 25.085 19.3742 25.02C19.5969 25.0097 19.8193 24.9933 20.0412 24.971C20.9742 24.878 21.5372 24.699 21.9362 24.544C22.1709 24.4549 22.3982 24.3476 22.6161 24.223C22.8848 24.0662 23.1352 23.8797 23.3622 23.667C23.4166 23.6164 23.4698 23.5647 23.5221 23.512C23.9807 23.0676 24.3338 22.526 24.5552 21.927C24.7432 21.443 24.9662 20.719 25.0292 19.39C25.0295 19.382 25.0298 19.374 25.0302 19.366C25.0377 19.2043 25.045 19.0427 25.0521 18.881C25.0941 17.888 25.1081 17.206 25.1101 14.807C25.1103 14.469 25.1103 14.131 25.1101 13.793C25.1101 10.549 25.1001 9.82399 25.0521 8.70299C25.045 8.54165 25.0377 8.38032 25.0302 8.219C25.0202 7.99627 25.0042 7.77385 24.9822 7.55199C24.8892 6.61999 24.7102 6.057 24.5552 5.658C24.4655 5.42291 24.3575 5.19521 24.2322 4.977C24.0369 4.64506 23.798 4.3407 23.5221 4.07199C23.1044 3.64103 22.5999 3.3036 22.0421 3.082C22.0069 3.06766 21.9716 3.05366 21.9362 3.04C21.8729 3.01566 21.8092 2.99232 21.7451 2.97C21.2641 2.8 20.5631 2.622 19.3981 2.567C19.3901 2.56666 19.3822 2.56632 19.3742 2.566ZM20.8842 13.793C20.884 12.8626 20.7006 11.9414 20.3444 11.0819C19.9882 10.2224 19.4663 9.44152 18.8083 8.78379C18.1502 8.12606 17.3691 7.60439 16.5094 7.24856C15.6498 6.89274 14.7285 6.70973 13.7981 6.70999C12.8558 6.6906 11.919 6.85945 11.0427 7.20667C10.1665 7.55389 9.3684 8.07248 8.69509 8.73207C8.02178 9.39166 7.48678 10.179 7.12161 11.0479C6.75643 11.9169 6.56838 12.8499 6.56838 13.7925C6.56838 14.735 6.75643 15.6681 7.12161 16.5371C7.48678 17.406 8.02178 18.1933 8.69509 18.8529C9.3684 19.5125 10.1665 20.0311 11.0427 20.3783C11.919 20.7255 12.8558 20.8944 13.7981 20.875C14.7284 20.8753 15.6496 20.6923 16.5092 20.3365C17.3688 19.9808 18.1499 19.4592 18.8079 18.8016C19.4659 18.1439 19.9879 17.3631 20.3441 16.5038C20.7004 15.6444 20.8839 14.7233 20.8842 13.793ZM13.7981 18.39C14.4118 18.4057 15.0224 18.2983 15.5939 18.0743C16.1654 17.8503 16.6862 17.5142 17.1258 17.0857C17.5653 16.6573 17.9147 16.1451 18.1532 15.5795C18.3917 15.014 18.5146 14.4063 18.5146 13.7925C18.5146 13.1787 18.3917 12.571 18.1532 12.0054C17.9147 11.4398 17.5653 10.9277 17.1258 10.4992C16.6862 10.0708 16.1654 9.73464 15.5939 9.51064C15.0224 9.28664 14.4118 9.17932 13.7981 9.19499C13.1942 9.19486 12.5962 9.3137 12.0382 9.54471C11.4803 9.77572 10.9732 10.1144 10.5462 10.5414C10.1191 10.9683 9.78035 11.4753 9.54922 12.0332C9.31808 12.5911 9.19912 13.1891 9.19912 13.793C9.19965 15.0126 9.68463 16.182 10.5473 17.044C11.4099 17.9061 12.5786 18.3903 13.7981 18.39ZM21.1641 8.08499C21.6031 8.08499 22.0242 7.91066 22.3347 7.60032C22.6453 7.28997 22.8198 6.86902 22.8201 6.43C22.8201 6.21257 22.7774 5.99728 22.6941 5.79642C22.6109 5.59556 22.4889 5.41307 22.3351 5.25938C22.1813 5.10568 21.9987 4.9838 21.7978 4.90069C21.5968 4.81757 21.3815 4.77486 21.1641 4.775C20.2501 4.775 19.5082 5.515 19.5082 6.43C19.5085 6.86902 19.683 7.28997 19.9936 7.60032C20.3041 7.91066 20.7251 8.08499 21.1641 8.08499Z" fill="black"/>
</g>
<defs>
<clipPath id="clip0_2311_16">
<rect width="27.597" height="27.584" fill="white"/>
</clipPath>
</defs>
</svg>
