<svg xmlns="http://www.w3.org/2000/svg" width="27.597" height="27.584" viewBox="1687 34 27.597 27.584"><path d="M1701.788 34a934.021 934.021 0 0 0-.99 0 916.955 916.955 0 0 0-1.039 0c-2.813.004-3.327.023-4.65.083-.826.037-1.505.128-2.097.26a8.606 8.606 0 0 0-1.252.38 6.764 6.764 0 0 0-2.444 1.592 7.842 7.842 0 0 0-.307.324 6.725 6.725 0 0 0-1.285 2.119 8.572 8.572 0 0 0-.36 1.162c-.077.329-.141.685-.19 1.079a14.293 14.293 0 0 0-.091 1.107 282.877 282.877 0 0 0-.011.249c-.052 1.157-.069 1.777-.072 4.448a938.326 938.326 0 0 0 0 .99 920.767 920.767 0 0 0 0 1.038c.003 2.446.018 3.153.061 4.166a179.614 179.614 0 0 0 .022.482 14.552 14.552 0 0 0 .079 1.004c.046.399.107.76.181 1.092a8.588 8.588 0 0 0 .381 1.252 6.766 6.766 0 0 0 1.592 2.443 7.88 7.88 0 0 0 .306.29 6.73 6.73 0 0 0 2.138 1.3c.878.341 1.88.575 3.35.641a272.9 272.9 0 0 0 .248.012c1.158.052 1.779.068 4.45.07a955.03 955.03 0 0 0 .99.001 936.964 936.964 0 0 0 1.04 0c2.447-.003 3.154-.017 4.167-.061a175.004 175.004 0 0 0 .482-.022 14.545 14.545 0 0 0 1.005-.078c.399-.046.76-.107 1.092-.182a8.604 8.604 0 0 0 1.253-.38 6.767 6.767 0 0 0 2.444-1.591 7.858 7.858 0 0 0 .307-.324 6.728 6.728 0 0 0 1.284-2.12 8.58 8.58 0 0 0 .36-1.16 10.2 10.2 0 0 0 .19-1.08 14.287 14.287 0 0 0 .092-1.107 286.542 286.542 0 0 0 .011-.249c.052-1.157.069-1.778.071-4.448a932.556 932.556 0 0 0 0-.99 915.598 915.598 0 0 0 0-1.038c-.003-2.812-.022-3.326-.082-4.648a14.546 14.546 0 0 0-.079-1.005 9.17 9.17 0 0 0-.563-2.343 6.949 6.949 0 0 0-.752-1.443 7.083 7.083 0 0 0-.84-1 7.844 7.844 0 0 0-.323-.307 6.726 6.726 0 0 0-2.12-1.284 8.59 8.59 0 0 0-1.162-.36 11.866 11.866 0 0 0-2.188-.281 287.5 287.5 0 0 0-.249-.011c-1.158-.052-1.778-.069-4.45-.072Zm4.586 2.566a175.26 175.26 0 0 0-.485-.022c-.993-.042-1.676-.056-4.075-.059a968.42 968.42 0 0 0-1.016 0 987.643 987.643 0 0 0-.967 0c-2.439.003-3.124.016-4.124.059a175.17 175.17 0 0 0-.484.022c-1.346.06-2.076.285-2.563.474a4.831 4.831 0 0 0-.68.322 4.336 4.336 0 0 0-.906.71c-.456.455-.748.89-.99 1.48a6.078 6.078 0 0 0-.042.106 6.442 6.442 0 0 0-.072.193c-.17.483-.35 1.19-.403 2.368a171.739 171.739 0 0 0-.022.485c-.042.992-.056 1.675-.058 4.074a978.96 978.96 0 0 0 0 1.015c0 3.682.013 4.118.08 5.573.057 1.253.256 1.973.436 2.459a6.815 6.815 0 0 0 .039.102 4.813 4.813 0 0 0 .322.68c.188.324.415.61.71.905.456.456.891.748 1.48.99a6.076 6.076 0 0 0 .106.042 6.447 6.447 0 0 0 .192.071c.481.17 1.182.348 2.347.403a14.316 14.316 0 0 0 .024.001 174.927 174.927 0 0 0 .484.022c1.12.048 1.847.059 5.091.059 3.685 0 4.121-.015 5.576-.08a12.394 12.394 0 0 0 .667-.049c.933-.093 1.496-.272 1.895-.427a4.816 4.816 0 0 0 .68-.321 4.15 4.15 0 0 0 .746-.556 5.612 5.612 0 0 0 .16-.155 4.266 4.266 0 0 0 1.033-1.585c.188-.484.411-1.208.474-2.537a14.022 14.022 0 0 0 .001-.024 173.42 173.42 0 0 0 .022-.485c.042-.993.056-1.675.058-4.074a972.25 972.25 0 0 0 0-1.014c0-3.244-.01-3.969-.058-5.09a173.425 173.425 0 0 0-.022-.484 12.376 12.376 0 0 0-.048-.667c-.093-.932-.272-1.495-.427-1.894a4.817 4.817 0 0 0-.323-.681 4.325 4.325 0 0 0-.71-.905 4.243 4.243 0 0 0-1.48-.99 6.092 6.092 0 0 0-.106-.042 6.457 6.457 0 0 0-.191-.07c-.481-.17-1.182-.348-2.347-.403a14.052 14.052 0 0 0-.024-.001Zm1.51 11.227a7.084 7.084 0 0 0-7.086-7.083 7.084 7.084 0 1 0 0 14.165 7.084 7.084 0 0 0 7.086-7.082Zm-7.086 4.597a4.599 4.599 0 1 0 0-9.195 4.598 4.598 0 0 0-4.599 4.598 4.599 4.599 0 0 0 4.6 4.597Zm7.366-10.305a1.656 1.656 0 0 0 1.656-1.655 1.655 1.655 0 0 0-1.656-1.655c-.914 0-1.656.74-1.656 1.655a1.656 1.656 0 0 0 1.656 1.655Z" fill="rgba(255, 255, 255, 1)" fill-rule="evenodd" data-name="SS копия 2"/></svg>