<svg width="279" height="22" viewBox="0 0 279 22" fill="none" xmlns="http://www.w3.org/2000/svg">
<g clip-path="url(#clip0_2311_18)">
<path fill-rule="evenodd" clip-rule="evenodd" d="M224.848 8.51003C223.52 11.2437 221.84 13.7926 219.853 16.092L218.991 17.09V0.312029H215.926V21.187H219.383C221.406 19.3031 223.219 17.2052 224.789 14.93L225.153 14.401L230.859 21.187H234.34L226.76 11.758L226.918 11.471C227.913 9.64353 228.756 7.73707 229.438 5.77103C230.056 3.98951 230.541 2.16447 230.888 0.31103H227.631C227.048 3.14921 226.113 5.90351 224.848 8.51003ZM177.828 20.804C179.342 21.266 180.922 21.497 182.561 21.497C183.048 21.4981 183.535 21.4774 184.02 21.435C184.389 21.4025 184.757 21.3538 185.122 21.289C185.583 21.2078 186.039 21.0942 186.484 20.949C186.734 20.8668 186.981 20.7727 187.222 20.667C187.56 20.52 187.887 20.3506 188.202 20.16C188.429 20.0221 188.647 19.8708 188.856 19.707C189.186 19.449 189.485 19.1537 189.748 18.827C189.832 18.7221 189.911 18.6136 189.986 18.502C190.28 18.0645 190.506 17.5856 190.658 17.081C190.795 16.6163 190.87 16.1355 190.881 15.651C190.882 15.5994 190.883 15.5477 190.883 15.496C190.884 15.19 190.864 14.8842 190.822 14.581C190.783 14.2969 190.719 14.0168 190.631 13.744C190.511 13.3699 190.332 13.0172 190.101 12.699C190.038 12.613 189.971 12.5299 189.9 12.45C189.565 12.0683 189.186 11.7282 188.77 11.437C188.352 11.1477 187.901 10.9081 187.427 10.723C187.342 10.69 187.257 10.6576 187.171 10.626C186.684 10.4468 186.191 10.2843 185.693 10.139C185.349 10.0388 185.003 9.94379 184.656 9.85403C184.275 9.75573 183.893 9.66239 183.51 9.57403L181.901 9.15403L180.661 8.78003C180.378 8.68548 180.102 8.5712 179.835 8.43803C179.77 8.40537 179.706 8.37136 179.642 8.33603C179.357 8.1815 179.088 7.99714 178.842 7.78603C178.826 7.77214 178.811 7.75814 178.795 7.74403C178.537 7.51951 178.329 7.24276 178.185 6.93203C178.179 6.91975 178.174 6.90741 178.168 6.89503C178.055 6.63169 177.987 6.35106 177.967 6.06503C177.962 5.99215 177.959 5.9191 177.959 5.84603C177.959 5.31703 178.077 4.83503 178.309 4.40303C178.491 4.0727 178.732 3.77798 179.019 3.53303C179.121 3.44559 179.227 3.36347 179.337 3.28703C179.777 2.98303 180.328 2.75203 180.985 2.60303C181.647 2.46203 182.322 2.38998 182.999 2.38803C183.061 2.38728 183.122 2.38695 183.184 2.38703C183.688 2.38764 184.191 2.42339 184.69 2.49403C184.707 2.49666 184.723 2.49932 184.74 2.50203C185.262 2.57703 185.796 2.69203 186.336 2.84403C186.875 2.99602 187.404 3.18308 187.919 3.40403C188.265 3.55103 188.609 3.71603 188.947 3.89603L189.86 1.63703C189.547 1.45016 189.223 1.28155 188.89 1.13203C188.841 1.10996 188.792 1.0883 188.742 1.06703C188.182 0.8288 187.605 0.633241 187.015 0.482028C185.773 0.161722 184.496 -0.0002291 183.214 2.90504e-05C182.727 -0.000892859 182.24 0.0201282 181.755 0.0630288C181.386 0.0955786 181.019 0.144292 180.655 0.209029C180.197 0.290546 179.746 0.404499 179.304 0.550028C179.055 0.632631 178.81 0.727072 178.57 0.833029C177.991 1.08213 177.447 1.40478 176.95 1.79303C176.581 2.08327 176.251 2.42083 175.97 2.79703C175.918 2.86705 175.869 2.93841 175.821 3.01103C175.524 3.46103 175.298 3.94103 175.148 4.44603C175.007 4.92792 174.932 5.42686 174.925 5.92903C174.924 5.96336 174.924 5.9977 174.924 6.03203C174.923 6.3397 174.943 6.64708 174.984 6.95203C175.022 7.24396 175.086 7.53203 175.174 7.81303C175.281 8.1487 175.434 8.46827 175.627 8.76303C175.712 8.89147 175.806 9.01408 175.907 9.13003C176.241 9.51293 176.619 9.85497 177.034 10.149C177.436 10.433 177.881 10.669 178.359 10.851C178.554 10.9265 178.751 10.9982 178.949 11.066C179.166 11.141 179.399 11.217 179.645 11.294C179.797 11.3414 179.95 11.3878 180.103 11.433C180.763 11.627 181.508 11.824 182.331 12.02L183.931 12.438L185.173 12.813C185.516 12.9246 185.847 13.0678 186.163 13.241C186.173 13.2467 186.183 13.2523 186.193 13.258C186.509 13.435 186.795 13.639 187.045 13.865C187.262 14.0604 187.444 14.2914 187.583 14.548C187.614 14.6068 187.644 14.6669 187.67 14.728C187.796 15.0244 187.865 15.3413 187.876 15.663C187.878 15.701 187.879 15.739 187.879 15.777C187.879 16.29 187.755 16.76 187.512 17.18C187.352 17.4514 187.149 17.6955 186.912 17.903C186.769 18.0303 186.616 18.1466 186.455 18.251C186.218 18.4024 185.967 18.5297 185.705 18.631C185.445 18.7324 185.179 18.8146 184.907 18.877C184.866 18.8868 184.824 18.8961 184.783 18.905C184.486 18.9674 184.187 19.0142 183.885 19.045C182.764 19.1602 181.632 19.1235 180.521 18.936C179.832 18.8174 179.154 18.6428 178.493 18.414C177.988 18.241 177.493 18.0379 177.012 17.806C176.883 17.7439 176.756 17.6795 176.629 17.613C176.262 17.42 175.908 17.2056 175.566 16.971L174.566 19.225C174.802 19.4056 175.048 19.5719 175.303 19.723C175.467 19.8202 175.634 19.9119 175.804 19.998C176.155 20.1781 176.516 20.339 176.884 20.48C177.195 20.5992 177.51 20.7072 177.828 20.804ZM55.494 19.55H62.76L63.151 21.267H66.409C65.6726 17.339 64.321 13.5517 62.404 10.045C60.4585 6.48707 57.9604 3.26058 55.003 0.486029C52.046 3.2603 49.5482 6.48645 47.603 10.044C45.6854 13.5508 44.3337 17.3385 43.598 21.267H46.855C47.4385 18.4286 48.3737 15.674 49.639 13.067C50.9672 10.334 52.6456 7.78555 54.632 5.48603L55.002 5.05603L55.373 5.48603C56.7661 7.09927 58.0092 8.83612 59.087 10.675C60.1625 12.5101 61.0676 14.4398 61.791 16.44L62.029 17.1H55.494V19.55ZM266.871 0.486029C263.914 3.26028 261.416 6.48645 259.471 10.044C257.554 13.5509 256.202 17.3385 255.467 21.267H258.723C259.307 18.4287 260.242 15.6741 261.507 13.067C262.836 10.3341 264.515 7.78576 266.501 5.48603L266.871 5.05603L267.242 5.48603C268.635 7.0993 269.878 8.83615 270.956 10.675C272.031 12.5101 272.936 14.4399 273.66 16.44L273.898 17.1H267.363V19.55H274.628L275.02 21.267H278.277C277.541 17.3389 276.189 13.5517 274.272 10.045C272.327 6.48691 269.829 3.26037 266.872 0.486029H266.871ZM141.613 19.55H148.878L149.269 21.267H152.526C151.79 17.3388 150.438 13.5512 148.522 10.044C146.577 6.48659 144.079 3.26047 141.122 0.486029C138.164 3.26077 135.666 6.48762 133.72 10.046C131.802 13.552 130.451 17.3391 129.716 21.267H132.972C133.556 18.4285 134.491 15.6738 135.757 13.067C137.085 10.3337 138.764 7.78516 140.751 5.48603L141.121 5.05603L141.492 5.48603C142.884 7.09957 144.127 8.83639 145.205 10.675C146.28 12.5101 147.186 14.4398 147.909 16.44L148.147 17.1H141.613V19.55ZM91.045 11.535C92.9909 15.0924 95.4893 18.3183 98.447 21.092C101.404 18.3179 103.902 15.0917 105.847 11.534C107.764 8.02764 109.116 4.24026 109.851 0.312029H106.594C105.394 6.15072 102.717 11.584 98.817 16.092L98.447 16.521L98.077 16.092C96.0892 13.7926 94.4097 11.2437 93.081 8.51003C91.8158 5.9038 90.8809 3.14985 90.298 0.312029H87.04C87.7765 4.24037 89.1281 8.02793 91.045 11.535ZM10.075 0.312029H0V21.187H10.075C10.8542 21.1891 11.6324 21.1323 12.403 21.017C12.69 20.9729 12.9755 20.9195 13.259 20.857C14.2277 20.6484 15.1669 20.3206 16.055 19.881C16.8879 19.469 17.6596 18.9433 18.348 18.319C19.0155 17.7079 19.5908 17.0033 20.056 16.227C20.531 15.437 20.888 14.587 21.124 13.68C21.3022 12.9876 21.4134 12.2797 21.456 11.566C21.4729 11.2937 21.4812 11.0209 21.481 10.748C21.4832 10.0734 21.4293 9.39975 21.32 8.73403C21.2684 8.4256 21.203 8.11962 21.124 7.81703C20.8919 6.92217 20.5322 6.06538 20.056 5.27303C19.5914 4.49576 19.016 3.79035 18.348 3.17903C17.6598 2.5551 16.888 2.03006 16.055 1.61903C15.1685 1.17827 14.2306 0.849417 13.263 0.640028C12.2152 0.416497 11.1464 0.306529 10.075 0.312029ZM10.505 18.721C11.0905 18.6932 11.6728 18.6176 12.246 18.495C12.9685 18.3398 13.6685 18.0935 14.329 17.762C14.9582 17.4486 15.5391 17.0465 16.054 16.568C16.5588 16.0937 16.9905 15.547 17.335 14.946C17.6892 14.3304 17.9548 13.6679 18.124 12.978C18.1691 12.7961 18.2081 12.6126 18.241 12.428C18.338 11.8733 18.3858 11.3111 18.384 10.748C18.3842 10.578 18.3802 10.4079 18.372 10.238C18.3449 9.6587 18.2619 9.08336 18.124 8.52003C17.9549 7.83035 17.6889 7.16811 17.334 6.55303C16.9897 5.95242 16.5588 5.40587 16.055 4.93103C16.0226 4.90071 15.99 4.87071 15.957 4.84103C15.4654 4.40186 14.9172 4.03055 14.327 3.73703C13.666 3.40612 12.9658 3.16016 12.243 3.00503C12.0564 2.96441 11.8686 2.92906 11.68 2.89903C11.0879 2.80636 10.4893 2.76055 9.89 2.76203H3.065V18.736H9.89C10.0951 18.7362 10.3002 18.7312 10.505 18.721Z" fill="black"/>
</g>
<defs>
<clipPath id="clip0_2311_18">
<rect width="278.277" height="21.497" fill="white"/>
</clipPath>
</defs>
</svg>
