<svg xmlns="http://www.w3.org/2000/svg" width="278.277" height="21.497" viewBox="106 37 278.277 21.497"><path d="M330.848 45.51a34.961 34.961 0 0 1-4.995 7.582l-.862.998V37.312h-3.065v20.875h3.457a38.194 38.194 0 0 0 5.406-6.257l.364-.529 5.706 6.786h3.481l-7.58-9.429.158-.287a37.853 37.853 0 0 0 2.52-5.7 38.018 38.018 0 0 0 1.45-5.46h-3.257a34.808 34.808 0 0 1-2.783 8.199Zm-47.02 12.294c1.514.462 3.094.693 4.733.693a16.336 16.336 0 0 0 1.459-.062 12.697 12.697 0 0 0 1.102-.146 9.974 9.974 0 0 0 1.362-.34 8.297 8.297 0 0 0 .738-.282 8.279 8.279 0 0 0 .98-.507 6.722 6.722 0 0 0 .654-.453 5.451 5.451 0 0 0 .892-.88 4.796 4.796 0 0 0 .238-.325 5.283 5.283 0 0 0 .672-1.421 5.47 5.47 0 0 0 .223-1.43 6.085 6.085 0 0 0 .002-.155 6.549 6.549 0 0 0-.061-.915 4.857 4.857 0 0 0-.191-.837 3.725 3.725 0 0 0-.53-1.045 3.442 3.442 0 0 0-.201-.249 6.34 6.34 0 0 0-1.13-1.013 6.552 6.552 0 0 0-1.343-.714 15.723 15.723 0 0 0-.256-.097 22.572 22.572 0 0 0-1.478-.487 35.548 35.548 0 0 0-1.037-.285 45.355 45.355 0 0 0-1.146-.28l-1.609-.42-1.24-.374a6.38 6.38 0 0 1-.826-.342 5.26 5.26 0 0 1-.193-.102 4.588 4.588 0 0 1-.8-.55 4.32 4.32 0 0 1-.047-.042 2.422 2.422 0 0 1-.61-.812 2.294 2.294 0 0 1-.017-.037 2.54 2.54 0 0 1-.201-.83 2.943 2.943 0 0 1-.008-.219c0-.529.118-1.011.35-1.443a3.138 3.138 0 0 1 .71-.87 3.878 3.878 0 0 1 .318-.246c.44-.304.991-.535 1.648-.684a9.805 9.805 0 0 1 2.014-.215 13.755 13.755 0 0 1 .185-.001 10.835 10.835 0 0 1 1.506.107 11.61 11.61 0 0 1 .05.008c.522.075 1.056.19 1.596.342a12.862 12.862 0 0 1 1.583.56c.346.147.69.312 1.028.492l.913-2.259a9.475 9.475 0 0 0-.97-.505 9.97 9.97 0 0 0-.148-.065 12.08 12.08 0 0 0-1.727-.585 15.204 15.204 0 0 0-3.801-.482 16.215 16.215 0 0 0-1.459.063 12.647 12.647 0 0 0-1.1.146 9.815 9.815 0 0 0-1.351.341 8.246 8.246 0 0 0-.734.283 7.338 7.338 0 0 0-1.62.96 5.355 5.355 0 0 0-.98 1.004 4.966 4.966 0 0 0-.149.214c-.297.45-.523.93-.673 1.435a5.523 5.523 0 0 0-.223 1.483 6.082 6.082 0 0 0-.001.103 6.788 6.788 0 0 0 .06.92 5.114 5.114 0 0 0 .19.861 3.903 3.903 0 0 0 .453.95 3.451 3.451 0 0 0 .28.367 6.447 6.447 0 0 0 1.127 1.019c.402.284.847.52 1.325.702a16.025 16.025 0 0 0 .59.215c.217.075.45.151.696.228a33.79 33.79 0 0 0 .458.139c.66.194 1.405.391 2.228.587l1.6.418 1.242.375a5.785 5.785 0 0 1 .99.428 5.514 5.514 0 0 1 .03.017c.316.177.602.381.852.607a2.564 2.564 0 0 1 .538.683 2.414 2.414 0 0 1 .087.18 2.617 2.617 0 0 1 .206.935 2.953 2.953 0 0 1 .003.114c0 .513-.124.983-.367 1.403a2.962 2.962 0 0 1-.6.723 3.84 3.84 0 0 1-.457.348 4.204 4.204 0 0 1-.75.38 5.705 5.705 0 0 1-.798.246 6.735 6.735 0 0 1-.124.028 8.633 8.633 0 0 1-.898.14 12.525 12.525 0 0 1-3.364-.109 12.881 12.881 0 0 1-2.028-.522 13.441 13.441 0 0 1-1.481-.608 12.499 12.499 0 0 1-.383-.193 10.61 10.61 0 0 1-1.063-.642l-1 2.254a7.44 7.44 0 0 0 .737.498 8.7 8.7 0 0 0 .501.275 10.892 10.892 0 0 0 1.08.482 14.059 14.059 0 0 0 .944.324ZM161.494 56.55h7.266l.391 1.717h3.258a37.986 37.986 0 0 0-4.005-11.222 38.31 38.31 0 0 0-7.401-9.559 38.305 38.305 0 0 0-7.4 9.558 37.954 37.954 0 0 0-4.005 11.223h3.257a34.849 34.849 0 0 1 2.784-8.2 34.997 34.997 0 0 1 4.993-7.581l.37-.43.371.43a35.08 35.08 0 0 1 3.714 5.189 34.83 34.83 0 0 1 2.704 5.765l.238.66h-6.535v2.45Zm211.377-19.064a38.304 38.304 0 0 0-7.4 9.558 37.954 37.954 0 0 0-4.004 11.223h3.256a34.883 34.883 0 0 1 2.784-8.2 35.036 35.036 0 0 1 4.994-7.581l.37-.43.371.43a35.088 35.088 0 0 1 3.714 5.189 34.848 34.848 0 0 1 2.704 5.765l.238.66h-6.535v2.45h7.265l.392 1.717h3.257a37.98 37.98 0 0 0-4.005-11.222 38.285 38.285 0 0 0-7.4-9.559ZM247.613 56.55h7.265l.391 1.717h3.257a38.005 38.005 0 0 0-4.004-11.223 38.32 38.32 0 0 0-7.4-9.558 38.307 38.307 0 0 0-7.402 9.56 37.916 37.916 0 0 0-4.004 11.221h3.256a34.821 34.821 0 0 1 2.785-8.2 34.949 34.949 0 0 1 4.994-7.581l.37-.43.371.43a35.156 35.156 0 0 1 3.713 5.189 34.84 34.84 0 0 1 2.704 5.765l.238.66h-6.534v2.45Zm-50.568-8.015a38.3 38.3 0 0 0 7.402 9.557 38.29 38.29 0 0 0 7.4-9.558 37.933 37.933 0 0 0 4.004-11.222h-3.257a34.838 34.838 0 0 1-7.777 15.78l-.37.429-.37-.429a34.97 34.97 0 0 1-4.996-7.582 34.813 34.813 0 0 1-2.783-8.198h-3.258a37.999 37.999 0 0 0 4.005 11.223Zm-80.97-11.223H106v20.875h10.075a15.45 15.45 0 0 0 2.328-.17 13.55 13.55 0 0 0 .856-.16 11.995 11.995 0 0 0 2.796-.976 10.04 10.04 0 0 0 2.293-1.562 9.36 9.36 0 0 0 1.708-2.092c.475-.79.832-1.64 1.068-2.547a11.151 11.151 0 0 0 .332-2.114 13.036 13.036 0 0 0 .025-.818 12.189 12.189 0 0 0-.161-2.014 10.495 10.495 0 0 0-.196-.917 9.632 9.632 0 0 0-1.068-2.544 9.32 9.32 0 0 0-1.708-2.094 10.005 10.005 0 0 0-2.293-1.56 11.947 11.947 0 0 0-2.792-.979 14.913 14.913 0 0 0-3.188-.328Zm.43 18.409a10.766 10.766 0 0 0 1.741-.226 8.738 8.738 0 0 0 2.083-.733 7.346 7.346 0 0 0 1.725-1.194 7.007 7.007 0 0 0 1.281-1.622 7.555 7.555 0 0 0 .789-1.968 8.404 8.404 0 0 0 .117-.55 9.574 9.574 0 0 0 .143-1.68 10.284 10.284 0 0 0-.012-.51 8.992 8.992 0 0 0-.248-1.718 7.52 7.52 0 0 0-.79-1.967 7.04 7.04 0 0 0-1.279-1.622 6.885 6.885 0 0 0-.098-.09 7.377 7.377 0 0 0-1.63-1.104 8.764 8.764 0 0 0-2.084-.732 10.162 10.162 0 0 0-.563-.106 11.395 11.395 0 0 0-1.79-.137h-6.825v15.974h6.825a12.294 12.294 0 0 0 .615-.015Zm80.54-7.186c1.885 3.451 0 0 0 0" fill="rgba(255, 255, 255, 1)" fill-rule="evenodd" data-name="Logo"/></svg>