<svg xmlns="http://www.w3.org/2000/svg" width="278.277" height="21.497" viewBox="106 876 278.277 21.497"><path d="M330.848 884.51a34.97 34.97 0 0 1-4.995 7.583l-.862.997v-16.778h-3.065v20.875h3.457a38.205 38.205 0 0 0 5.406-6.256l.364-.53 5.706 6.786h3.481l-7.58-9.428.158-.288a37.87 37.87 0 0 0 2.52-5.7 38.035 38.035 0 0 0 1.45-5.459h-3.257a34.813 34.813 0 0 1-2.783 8.198Zm-47.02 12.295a16.16 16.16 0 0 0 4.733.692 16.375 16.375 0 0 0 1.459-.062 12.708 12.708 0 0 0 1.102-.146 9.317 9.317 0 0 0 2.1-.622 8.283 8.283 0 0 0 .98-.507 6.727 6.727 0 0 0 .654-.453 5.443 5.443 0 0 0 .892-.88 4.785 4.785 0 0 0 .238-.325 5.28 5.28 0 0 0 .672-1.421 5.47 5.47 0 0 0 .223-1.43 6.077 6.077 0 0 0 .002-.155 6.552 6.552 0 0 0-.061-.915 4.85 4.85 0 0 0-.191-.836 3.722 3.722 0 0 0-.53-1.045 3.438 3.438 0 0 0-.201-.25 6.351 6.351 0 0 0-1.13-1.013 6.547 6.547 0 0 0-1.343-.714 15.989 15.989 0 0 0-.309-.117c-.424-.156-.9-.312-1.425-.466a34.942 34.942 0 0 0-1.037-.286 45.32 45.32 0 0 0-1.146-.28l-1.609-.42-1.24-.374a6.363 6.363 0 0 1-.826-.342 5.286 5.286 0 0 1-.193-.102 4.564 4.564 0 0 1-.847-.591 2.42 2.42 0 0 1-.614-.82 2.294 2.294 0 0 1-.013-.03 2.533 2.533 0 0 1-.2-.82 2.942 2.942 0 0 1-.01-.229c0-.529.12-1.011.351-1.443a3.286 3.286 0 0 1 1.028-1.116c.44-.304.991-.535 1.648-.684a9.792 9.792 0 0 1 2.014-.215 13.75 13.75 0 0 1 .185-.001 10.83 10.83 0 0 1 1.506.108 11.696 11.696 0 0 1 .05.007 12.466 12.466 0 0 1 1.394.287 13.937 13.937 0 0 1 .202.056c.538.15 1.066.339 1.583.559.346.147.69.313 1.028.492l.913-2.258a9.494 9.494 0 0 0-.97-.506 9.9 9.9 0 0 0-.148-.065 11.65 11.65 0 0 0-1.244-.45 13.312 13.312 0 0 0-.483-.135 15.187 15.187 0 0 0-3.801-.482 16.208 16.208 0 0 0-1.459.063 12.705 12.705 0 0 0-1.1.146 9.833 9.833 0 0 0-1.351.341 8.22 8.22 0 0 0-.734.283 7.346 7.346 0 0 0-1.62.96 5.348 5.348 0 0 0-.983 1.01 4.96 4.96 0 0 0-.146.208 5.39 5.39 0 0 0-.673 1.435 5.554 5.554 0 0 0-.224 1.586 6.79 6.79 0 0 0 .06.92 5.116 5.116 0 0 0 .19.861 3.902 3.902 0 0 0 .453.95 3.46 3.46 0 0 0 .28.367 6.464 6.464 0 0 0 1.127 1.019c.402.284.847.52 1.325.703a16.041 16.041 0 0 0 .59.214c.348.12.734.243 1.154.367.66.194 1.405.391 2.228.587l1.6.419 1.242.374a5.806 5.806 0 0 1 .99.428 5.496 5.496 0 0 1 .03.017c.316.177.602.382.852.607a2.561 2.561 0 0 1 .539.685 2.412 2.412 0 0 1 .086.177 2.617 2.617 0 0 1 .206.936 2.95 2.95 0 0 1 .003.114 2.792 2.792 0 0 1-.225 1.12 2.676 2.676 0 0 1-.142.283 2.962 2.962 0 0 1-.6.723 3.846 3.846 0 0 1-.457.348c-.42.273-.939.484-1.548.626a6.759 6.759 0 0 1-.124.028 8.606 8.606 0 0 1-.898.141c-.333.036-.687.057-1.062.063a14.707 14.707 0 0 1-.262.003c-.677 0-1.358-.06-2.04-.176a12.906 12.906 0 0 1-2.028-.522 13.5 13.5 0 0 1-1.481-.608 12.39 12.39 0 0 1-.383-.193c-.375-.198-.73-.413-1.063-.642l-1 2.254a7.453 7.453 0 0 0 .737.498 8.731 8.731 0 0 0 .501.275 10.918 10.918 0 0 0 1.08.482 14.123 14.123 0 0 0 .944.325Zm-122.334-1.255h7.266l.391 1.717h3.258a37.983 37.983 0 0 0-4.005-11.222 38.298 38.298 0 0 0-7.401-9.558 38.31 38.31 0 0 0-7.4 9.557 37.957 37.957 0 0 0-4.005 11.223h3.257a34.849 34.849 0 0 1 2.784-8.2 34.999 34.999 0 0 1 4.993-7.58l.37-.43.371.43a35.095 35.095 0 0 1 3.714 5.188 34.82 34.82 0 0 1 2.704 5.765l.238.66h-6.535v2.45Zm211.377-19.063a38.31 38.31 0 0 0-7.4 9.557 37.956 37.956 0 0 0-4.004 11.223h3.256a34.882 34.882 0 0 1 2.784-8.2 35.04 35.04 0 0 1 4.994-7.58l.37-.43.371.43a35.104 35.104 0 0 1 3.714 5.188 34.837 34.837 0 0 1 2.704 5.765l.238.66h-6.535v2.45h7.265l.392 1.717h3.257a37.976 37.976 0 0 0-4.005-11.222 38.286 38.286 0 0 0-7.4-9.558ZM247.613 895.55h7.265l.391 1.717h3.257a38.008 38.008 0 0 0-4.004-11.223 38.313 38.313 0 0 0-7.4-9.557 38.305 38.305 0 0 0-7.402 9.56 37.918 37.918 0 0 0-4.004 11.22h3.256a34.818 34.818 0 0 1 2.785-8.2 34.959 34.959 0 0 1 4.994-7.58l.37-.43.371.43a35.15 35.15 0 0 1 3.713 5.188 34.829 34.829 0 0 1 2.704 5.765l.238.66h-6.534v2.45Zm-50.568-8.015a38.303 38.303 0 0 0 7.402 9.557 38.286 38.286 0 0 0 7.4-9.558 37.935 37.935 0 0 0 4.004-11.222h-3.257a34.844 34.844 0 0 1-2.783 8.198 35.07 35.07 0 0 1-4.994 7.583l-.37.428-.37-.428a34.98 34.98 0 0 1-4.996-7.583 34.819 34.819 0 0 1-2.783-8.198h-3.258a38.006 38.006 0 0 0 4.005 11.223Zm-80.97-11.223H106v20.875h10.075a15.47 15.47 0 0 0 2.328-.17 13.549 13.549 0 0 0 .856-.159 12.01 12.01 0 0 0 2.796-.977 10.04 10.04 0 0 0 2.293-1.562 9.363 9.363 0 0 0 1.708-2.092 9.62 9.62 0 0 0 1.068-2.546 11.15 11.15 0 0 0 .332-2.115 13.037 13.037 0 0 0 .025-.818 12.19 12.19 0 0 0-.161-2.014 10.491 10.491 0 0 0-.196-.917 9.636 9.636 0 0 0-1.068-2.544 9.316 9.316 0 0 0-1.708-2.094 9.92 9.92 0 0 0-2.053-1.437 10.886 10.886 0 0 0-.24-.123 11.938 11.938 0 0 0-2.792-.978 14.316 14.316 0 0 0-2.251-.303 16.506 16.506 0 0 0-.937-.026Zm.43 18.409a10.764 10.764 0 0 0 1.741-.226 8.722 8.722 0 0 0 2.083-.733 8.083 8.083 0 0 0 .121-.062 7.305 7.305 0 0 0 1.604-1.132 7.01 7.01 0 0 0 1.281-1.622 7.553 7.553 0 0 0 .789-1.968 8.411 8.411 0 0 0 .117-.549 9.574 9.574 0 0 0 .143-1.68 10.285 10.285 0 0 0-.012-.51 8.989 8.989 0 0 0-.248-1.719 7.518 7.518 0 0 0-.79-1.967 7.035 7.035 0 0 0-1.279-1.621 6.898 6.898 0 0 0-.1-.093 7.385 7.385 0 0 0-1.628-1.102 8.748 8.748 0 0 0-2.084-.732 10.166 10.166 0 0 0-.563-.106 11.39 11.39 0 0 0-1.79-.137h-6.825v15.974h6.825a12.291 12.291 0 0 0 .615-.015Zm80.54-7.186c1.885 3.451 0 0 0 0" fill="rgba(255, 255, 255, 1)" fill-rule="evenodd" data-name="Logo"/></svg>