<svg xmlns="http://www.w3.org/2000/svg" width="29.18" height="20.328" viewBox="1781 38 29.18 20.328"><path d="M1809.674 41.27a3.688 3.688 0 0 0-3.154-2.866 78.076 78.076 0 0 0-8.077-.397 301.59 301.59 0 0 0-2.236-.007 1386.214 1386.214 0 0 0-.613 0 1386.232 1386.232 0 0 0-.612 0c-3.444 0-6.899.023-10.314.404-1.527.17-2.796 1.315-3.153 2.866-.509 2.209-.514 4.619-.514 6.894a78.651 78.651 0 0 0 .034 2.805 21.83 21.83 0 0 0 .474 4.09 3.684 3.684 0 0 0 3.153 2.865c3.618.403 7.28.406 10.926.403a1113.737 1113.737 0 0 0 .727 0c.723 0 1.446 0 2.17-.006a77.87 77.87 0 0 0 8.03-.397 3.686 3.686 0 0 0 3.153-2.865 21.881 21.881 0 0 0 .476-4.09 77.192 77.192 0 0 0 .035-2.805c0-.913 0-1.847-.032-2.782a21.801 21.801 0 0 0-.473-4.112Zm-17.144 10.87v-8.087l7.714 4.044-7.714 4.043Zm17.144-10.87c-.507-2.208 0 0 0 0" fill="rgba(255, 255, 255, 1)" fill-rule="evenodd" data-name="SS"/></svg>