<svg width="30" height="21" viewBox="0 0 30 21" fill="none" xmlns="http://www.w3.org/2000/svg">
<g clip-path="url(#clip0_2311_12)">
<path fill-rule="evenodd" clip-rule="evenodd" d="M28.6743 3.26999C28.5098 2.52461 28.1181 1.84864 27.5532 1.33531C26.9882 0.821976 26.278 0.496576 25.5203 0.403988C22.8367 0.132221 20.1407 -0.000289794 17.4433 0.00698905C16.698 0.00189273 15.9527 -0.000440586 15.2073 -1.09235e-05C15.003 -5.61028e-05 14.7986 -5.61028e-05 14.5943 -1.09235e-05C14.3903 -5.59549e-05 14.1864 -5.59549e-05 13.9824 -1.09235e-05C10.5384 -1.09235e-05 7.08327 0.0229884 3.66827 0.403988C2.14127 0.573988 0.872318 1.71899 0.515318 3.26999C0.00631791 5.47899 0.00127983 7.88899 0.00127983 10.164C-0.00406316 11.0991 0.0073296 12.0343 0.0353374 12.969C0.0641277 14.3442 0.222832 15.7136 0.509336 17.059C0.673411 17.8043 1.06489 18.4803 1.6297 18.9935C2.19451 19.5067 2.90472 19.8318 3.66229 19.924C7.28029 20.327 10.9423 20.33 14.5883 20.327C14.8306 20.3271 15.0729 20.3271 15.3152 20.327C16.0382 20.327 16.7613 20.327 17.4853 20.321C20.167 20.327 22.8473 20.1945 25.5153 19.924C26.2728 19.8316 26.9829 19.5063 27.5477 18.9931C28.1124 18.48 28.5039 17.8042 28.6683 17.059C28.9551 15.7136 29.1146 14.3443 29.1443 12.969C29.173 12.0343 29.1846 11.0991 29.1793 10.164C29.1793 9.25099 29.1793 8.31699 29.1473 7.38199C29.1204 5.99942 28.962 4.62255 28.6743 3.26999ZM11.5303 14.14V6.05299L19.2443 10.097L11.5303 14.14Z" fill="black"/>
</g>
<defs>
<clipPath id="clip0_2311_12">
<rect width="29.18" height="20.328" fill="white"/>
</clipPath>
</defs>
</svg>
